<?xml version="1.0" encoding="UTF-8" standalone="no"?><svg xmlns="http://www.w3.org/2000/svg" xmlns:xlink="http://www.w3.org/1999/xlink" data-name="Layer 1" fill="#ffffff" height="804" preserveAspectRatio="xMidYMid meet" version="1" viewBox="98.0 98.0 804.0 804.0" width="804" zoomAndPan="magnify"><g id="change1_1"><path d="M500,98C278.3,98,98,278.3,98,500S278.3,902,500,902,902,721.7,902,500,721.7,98,500,98Zm0,775.8c-206.4,0-373.8-167.4-373.8-373.8S293.6,126.2,500,126.2,873.8,293.6,873.8,500,706.4,873.8,500,873.8Z"/></g><g id="change1_2"><path d="M702.4,370.5,566.3,500,702.4,629.5a39,39,0,0,0,7-16.6V387.1A39,39,0,0,0,702.4,370.5Z"/></g><g id="change1_3"><path d="M500,563.1l-56-53.3L308,639.2a38.2,38.2,0,0,0,21.1,6.3H670.9a38.2,38.2,0,0,0,21.1-6.3L556,509.8Z"/></g><g id="change1_4"><path d="M297.6,370.5a39,39,0,0,0-7,16.6V612.9a39,39,0,0,0,7,16.6L433.7,500Z"/></g><g id="change1_5"><path d="M444,490.2l56,53.4L692,360.8a38.2,38.2,0,0,0-21.1-6.3H329.1a38.2,38.2,0,0,0-21.1,6.3L444,490.2Z"/></g></svg>